<svg xmlns="http://www.w3.org/2000/svg" xmlns:xlink="http://www.w3.org/1999/xlink" width="134" height="91" viewBox="0 0 134 91">
  <defs>
    <filter id="Rectangle_18" x="0" y="0" width="134" height="91" filterUnits="userSpaceOnUse">
      <feOffset dx="3" dy="3" input="SourceAlpha"/>
      <feGaussianBlur stdDeviation="3" result="blur"/>
      <feFlood flood-color="#7272bf"/>
      <feComposite operator="in" in2="blur"/>
      <feComposite in="SourceGraphic"/>
    </filter>
  </defs>
  <g id="Group_69" data-name="Group 69" transform="translate(-1081 -615)">
    <g id="Component_22_38" data-name="Component 22 – 38" transform="translate(1087 621)">
      <g transform="matrix(1, 0, 0, 1, -6, -6)" filter="url(#Rectangle_18)">
        <rect id="Rectangle_18-2" data-name="Rectangle 18" width="116" height="73" rx="5" transform="translate(6 6)" fill="#c8c8e0"/>
      </g>
    </g>
    <path id="codepen-plain" d="M59.37,18.877,31.711.438a2.626,2.626,0,0,0-2.9,0L1.148,18.877A2.644,2.644,0,0,0,0,21.038V39.477a2.643,2.643,0,0,0,1.148,2.161L28.807,60.08a2.627,2.627,0,0,0,2.9,0L59.37,41.638a2.643,2.643,0,0,0,1.148-2.161V21.039a2.645,2.645,0,0,0-1.148-2.162ZM32.86,7.462,53.224,21.038l-9.084,6.079L32.86,19.586V7.463Zm-5.2,0V19.586l-11.28,7.531L7.294,21.039ZM5.2,25.9l6.518,4.357L5.2,34.614ZM27.659,53.054,7.294,39.477,16.379,33.4l11.28,7.531Zm2.6-16.65-9.186-6.146,9.186-6.146,9.186,6.146Zm2.6,16.65V40.93L44.139,33.4l9.084,6.079L32.86,53.054ZM55.318,34.614,48.8,30.258,55.318,25.9Z" transform="translate(1114.741 627.241)" fill="#637bbe"/>
  </g>
</svg>
