<svg viewBox="0 0 189 133.45" width="75" height="53" role="presentation" class="mintlodica-logo"><title>Mintlodica LLC logo</title><path fill="currentColor" d="M75.3 54.15l7.06-7.05H75.3v7.05zm0 32.2h7.06l-7.06-7.06v7.06zm39.25-39.25h-7.05l7.05 7.05V47.1zm0 32.19l-7.05 7.06h7.05v-7.06zM62.89 67.68a32.07 32.07 0 0 0 8.71 21l.56.59V76.15l-9.29-9.29zm0-1.91v.81l9.2-9.19.09-.1V44.13l-.56.59a32.09 32.09 0 0 0-8.73 21.05zm9.27 5.94v-9.98l-4.99 4.99 4.99 4.99zm22.63-37.04h-.81a32 32 0 0 0-21 8.71l-.59.56H85.5zM86.8 47.1L75.3 58.59v16.26l11.5 11.5h16.26l11.49-11.5V58.6l-11.49-11.5zM105.21 77a14.55 14.55 0 0 1-20.57-20.56h0A14.55 14.55 0 1 1 105.21 77zM89.94 89.49l4.99 4.99 4.99-4.99h-9.98zM62.19 35.75h0a2.5 2.5 0 0 0 0 3.51 2.49 2.49 0 0 0 3.52 0 2.49 2.49 0 1 0-3.52-3.51zm60.64 60.53a2.47 2.47 0 0 0 4.23 1.72h0a2.5 2.5 0 0 0 0-3.51 2.55 2.55 0 0 0-3.51 0 2.44 2.44 0 0 0-.72 1.79zm-5.14-34.55v9.98l4.99-4.99-4.99-4.99zm-54 36.78a2.51 2.51 0 0 0 1.76-.73h0a2.49 2.49 0 1 0-1.76.73zm21.81-9.02H72.34l.59.56a32.07 32.07 0 0 0 21 8.71h.82l-9.2-9.2zM126.81 39a2.5 2.5 0 0 0 0-3.51 2.55 2.55 0 0 0-3.52 0 2.49 2.49 0 0 0 3.52 3.51zm62.01 10a5.47 5.47 0 0 0-6.67-3.85l-22.52 6a66.72 66.72 0 0 0-129.78.13l-23-6.16A5.445 5.445 0 1 0 4 55.63l4.67 1.25a5.32 5.32 0 0 0-1.43 2.44A5.44 5.44 0 0 0 11.13 66l5.44 1.46a5.38 5.38 0 0 0 3.31 7.94L24 76.48a9.69 9.69 0 0 1-1-2.26A9.36 9.36 0 0 1 35.49 63a5.28 5.28 0 0 1 1.93 1.41 3 3 0 0 1 .5 1.6 3.16 3.16 0 1 1-6.31 0 2.91 2.91 0 0 1 .19-.93 6.79 6.79 0 0 0-1.48.22 6.63 6.63 0 0 0-1.5 12.14l.14.06a66.69 66.69 0 0 0 131.68-.35 6.58 6.58 0 0 0 2.08-8.76 6.6 6.6 0 0 0-4-3.14 6.79 6.79 0 0 0-1.48-.22 2.91 2.91 0 0 1 .19.93 3.16 3.16 0 1 1-6.31 0 3 3 0 0 1 .5-1.6 5.28 5.28 0 0 1 1.89-1.36A9.37 9.37 0 0 1 166 74.22a9.69 9.69 0 0 1-1 2.26l4.13-1.1a5.38 5.38 0 0 0 3.31-7.94l5.44-1.44a5.4 5.4 0 0 0 2.41-9.1l4.71-1.27a5.47 5.47 0 0 0 3.82-6.63zm-31.63 29.07a63.41 63.41 0 0 1-124.8 0 13 13 0 0 0 8.3-3.59 54.61 54.61 0 0 0 108.07.39 12.9 12.9 0 0 0 8.43 3.2zm-37.35 13.57a35.22 35.22 0 1 1 0-49.83 35 35 0 0 1 0 49.83zm1.68-57.93a5 5 0 1 1 0 7.07 5 5 0 0 1 0-7.07zm7.32 66.11a5 5 0 0 1-7.06 0 5 5 0 1 1 7.06 0zM67.48 41A5 5 0 0 1 59 37.51 5 5 0 1 1 67.48 41zm-7.33 51.49a5 5 0 1 1 0 7.07 5 5 0 0 1 0-7.07zm95.7-40.33a6.23 6.23 0 0 0-.65.24c-.44.07-.88.17-1.32.28a12.9 12.9 0 0 0-5.53 3.17 54.67 54.67 0 0 0-107.25.43 12.83 12.83 0 0 0-6-3.6l-1.32-.28a6.23 6.23 0 0 0-.65-.24h-.1a63.39 63.39 0 0 1 123.4-.16zM95.88 34.69h-.81l9.19 9.19.1.1h13.16l-.59-.56a32 32 0 0 0-21.05-8.73zm-.81 64.09h.81a32 32 0 0 0 21-8.71l.59-.56h-13.11zm4.85-54.82l-4.99-4.99-4.99 4.99h9.98zm17.77 32.19v13.16l.56-.59a31.9 31.9 0 0 0 8.71-21v-.81l-9.2 9.2zm0-32.02v13.16l9.3 9.29v-.81a32 32 0 0 0-8.71-21zM93.41 56.41a.94.94 0 0 0 .74 1 7.17 7.17 0 1 1-8.52 8.52 1 1 0 0 0-.91-.74h-.08a.93.93 0 0 0-.85.88A11.19 11.19 0 1 0 95 55.54h-.66a.93.93 0 0 0-.93.87zm-5.47 6.04l-.16 2.36a.47.47 0 0 0 .47.49.42.42 0 0 0 .26-.08l2-1.31 2.19.88a.57.57 0 0 0 .18 0 .47.47 0 0 0 .31-.12.46.46 0 0 0 .13-.47l-.68-2.2 1.51-1.82a.46.46 0 0 0 .07-.49.47.47 0 0 0-.41-.27l-2.36-.1-1.25-2a.47.47 0 0 0-.4-.22h0a.49.49 0 0 0-.39.31l-.81 2.21-2.29.58a.48.48 0 0 0-.34.36.46.46 0 0 0 .17.46zm5.11 4.15a.74.74 0 1 0 .74-.74.74.74 0 0 0-.74.74zm2.52-1.93a.74.74 0 1 0 .74.74.74.74 0 0 0-.74-.74zm-.57 2.8a.74.74 0 1 0 .74-.74.74.74 0 0 0-.74.74z"></path></svg>