<svg xmlns="http://www.w3.org/2000/svg" xmlns:xlink="http://www.w3.org/1999/xlink" width="134" height="91" viewBox="0 0 134 91">
  <defs>
    <filter id="Rectangle_18" x="0" y="0" width="134" height="91" filterUnits="userSpaceOnUse">
      <feOffset dx="3" dy="3" input="SourceAlpha"/>
      <feGaussianBlur stdDeviation="3" result="blur"/>
      <feFlood flood-color="#7272bf"/>
      <feComposite operator="in" in2="blur"/>
      <feComposite in="SourceGraphic"/>
    </filter>
  </defs>
  <g id="Group_68" data-name="Group 68" transform="translate(-1378 -703)">
    <g id="Component_22_33" data-name="Component 22 – 33" transform="translate(1384 709)">
      <g transform="matrix(1, 0, 0, 1, -6, -6)" filter="url(#Rectangle_18)">
        <rect id="Rectangle_18-2" data-name="Rectangle 18" width="116" height="73" rx="5" transform="translate(6 6)" fill="#c8c8e0"/>
      </g>
    </g>
    <path id="linkedin-plain" d="M60.82,3H7.605A4.559,4.559,0,0,0,3,7.5V60.932a4.559,4.559,0,0,0,4.605,4.493H60.82a4.569,4.569,0,0,0,4.605-4.508V7.487A4.569,4.569,0,0,0,60.82,3ZM21.507,56.214H12.241V26.4h9.267ZM16.9,22.336a2.943,2.943,0,1,0-.026-.01ZM56.215,56.214H46.948V41.708c0-3.454-.061-7.9-4.815-7.9s-5.562,3.766-5.562,7.675V56.214H27.32V26.4H36.2v4.093h.123a9.734,9.734,0,0,1,8.765-4.815c9.384-.02,11.124,6.155,11.124,14.163Z" transform="translate(1407.788 711.288)" fill="#637bbe"/>
  </g>
</svg>
